<?xml version="1.0" encoding="UTF-8"?>
<svg xmlns="http://www.w3.org/2000/svg" xmlns:xlink="http://www.w3.org/1999/xlink" width="30pt" height="30pt" viewBox="0 0 30 30" version="1.1">
<g id="surface19057265">
<path style=" stroke:none;fill-rule:nonzero;fill:rgb(100%,100%,100%);fill-opacity:1;" d="M 15 30 C 6.714844 30 0 23.285156 0 15 C 0 6.714844 6.714844 0 15 0 C 23.285156 0 30 6.714844 30 15 C 30 23.285156 23.285156 30 15 30 Z M 15 30 "/>
<path style=" stroke:none;fill-rule:nonzero;fill:rgb(0%,0%,0%);fill-opacity:1;" d="M 15 3.238281 C 8.507812 3.238281 3.242188 8.503906 3.242188 14.996094 C 3.242188 20.503906 7.035156 25.113281 12.152344 26.390625 C 12.097656 26.230469 12.0625 26.046875 12.0625 25.820312 L 12.0625 23.808594 C 11.582031 23.808594 10.785156 23.808594 10.582031 23.808594 C 9.777344 23.808594 9.0625 23.464844 8.71875 22.820312 C 8.332031 22.105469 8.265625 21.015625 7.3125 20.347656 C 7.027344 20.125 7.242188 19.871094 7.570312 19.90625 C 8.171875 20.074219 8.671875 20.488281 9.140625 21.101562 C 9.609375 21.714844 9.832031 21.855469 10.707031 21.855469 C 11.128906 21.855469 11.765625 21.832031 12.363281 21.738281 C 12.683594 20.921875 13.238281 20.167969 13.917969 19.8125 C 10.003906 19.410156 8.136719 17.464844 8.136719 14.820312 C 8.136719 13.679688 8.621094 12.582031 9.445312 11.652344 C 9.171875 10.730469 8.832031 8.855469 9.546875 8.136719 C 11.308594 8.136719 12.375 9.28125 12.628906 9.589844 C 13.507812 9.289062 14.472656 9.117188 15.484375 9.117188 C 16.5 9.117188 17.46875 9.289062 18.347656 9.589844 C 18.601562 9.285156 19.667969 8.136719 21.433594 8.136719 C 22.148438 8.855469 21.804688 10.742188 21.53125 11.660156 C 22.351562 12.585938 22.832031 13.683594 22.832031 14.820312 C 22.832031 17.460938 20.96875 19.410156 17.058594 19.8125 C 18.132812 20.375 18.917969 21.953125 18.917969 23.140625 L 18.917969 25.820312 C 18.917969 25.921875 18.894531 25.996094 18.882812 26.082031 C 23.464844 24.476562 26.757812 20.125 26.757812 14.996094 C 26.757812 8.503906 21.492188 3.238281 15 3.238281 Z M 15 3.238281 "/>
</g>
</svg>
