<?xml version="1.0" encoding="UTF-8"?>
<svg xmlns="http://www.w3.org/2000/svg" xmlns:xlink="http://www.w3.org/1999/xlink" width="24pt" height="24pt" viewBox="0 0 24 24" version="1.1">
<g id="surface19054567">
<path style=" stroke:none;fill-rule:nonzero;fill:rgb(100%,100%,100%);fill-opacity:1;" d="M 12 24 C 5.371094 24 0 18.628906 0 12 C 0 5.371094 5.371094 0 12 0 C 18.628906 0 24 5.371094 24 12 C 24 18.628906 18.628906 24 12 24 Z M 12 24 "/>
<path style=" stroke:none;fill-rule:nonzero;fill:rgb(0%,0%,0%);fill-opacity:1;" d="M 8.800781 4.800781 C 6.589844 4.800781 4.800781 6.589844 4.800781 8.800781 L 4.800781 15.199219 C 4.800781 17.410156 6.589844 19.199219 8.800781 19.199219 L 15.199219 19.199219 C 17.410156 19.199219 19.199219 17.410156 19.199219 15.199219 L 19.199219 8.800781 C 19.199219 6.589844 17.410156 4.800781 15.199219 4.800781 Z M 16.800781 6.398438 C 17.242188 6.398438 17.601562 6.757812 17.601562 7.199219 C 17.601562 7.640625 17.242188 8 16.800781 8 C 16.359375 8 16 7.640625 16 7.199219 C 16 6.757812 16.359375 6.398438 16.800781 6.398438 Z M 12 8 C 14.207031 8 16 9.792969 16 12 C 16 14.207031 14.207031 16 12 16 C 9.792969 16 8 14.207031 8 12 C 8 9.792969 9.792969 8 12 8 Z M 12 9.601562 C 10.675781 9.601562 9.601562 10.675781 9.601562 12 C 9.601562 13.324219 10.675781 14.398438 12 14.398438 C 13.324219 14.398438 14.398438 13.324219 14.398438 12 C 14.398438 10.675781 13.324219 9.601562 12 9.601562 Z M 12 9.601562 "/>
</g>
</svg>
