<?xml version="1.0" encoding="UTF-8"?>
<svg xmlns="http://www.w3.org/2000/svg" xmlns:xlink="http://www.w3.org/1999/xlink" width="24pt" height="24pt" viewBox="0 0 24 24" version="1.1">
<g id="surface19056581">
<path style=" stroke:none;fill-rule:nonzero;fill:rgb(100%,100%,100%);fill-opacity:1;" d="M 12 24 C 5.371094 24 0 18.628906 0 12 C 0 5.371094 5.371094 0 12 0 C 18.628906 0 24 5.371094 24 12 C 24 18.628906 18.628906 24 12 24 Z M 12 24 "/>
<path style=" stroke:none;fill-rule:nonzero;fill:rgb(0%,0%,0%);fill-opacity:1;" d="M 18.46875 4.078125 L 5.53125 4.078125 C 4.738281 4.078125 4.078125 4.738281 4.078125 5.53125 L 4.078125 18.46875 C 4.078125 19.261719 4.738281 19.921875 5.53125 19.921875 L 18.46875 19.921875 C 19.261719 19.921875 19.921875 19.261719 19.921875 18.46875 L 19.921875 5.53125 C 19.921875 4.738281 19.261719 4.078125 18.46875 4.078125 Z M 8.699219 17.28125 L 6.058594 17.28125 L 6.058594 10.019531 L 8.699219 10.019531 Z M 7.378906 9.160156 C 6.589844 9.160156 6.058594 8.632812 6.058594 7.972656 C 6.058594 7.25 6.589844 6.71875 7.378906 6.71875 C 8.171875 6.71875 8.699219 7.25 8.699219 7.910156 C 8.699219 8.632812 8.171875 9.160156 7.378906 9.160156 Z M 17.941406 17.28125 L 15.300781 17.28125 L 15.300781 13.320312 C 15.300781 12.261719 14.574219 12 14.378906 12 C 14.179688 12 13.320312 12.132812 13.320312 13.320312 C 13.320312 13.453125 13.320312 17.28125 13.320312 17.28125 L 10.679688 17.28125 L 10.679688 10.019531 L 13.320312 10.019531 L 13.320312 11.078125 C 13.71875 10.480469 14.378906 10.019531 15.628906 10.019531 C 16.882812 10.019531 17.941406 11.011719 17.941406 13.320312 Z M 17.941406 17.28125 "/>
</g>
</svg>
