<?xml version="1.0" encoding="UTF-8"?>
<svg xmlns="http://www.w3.org/2000/svg" xmlns:xlink="http://www.w3.org/1999/xlink" width="24pt" height="24pt" viewBox="0 0 24 24" version="1.1">
<g id="surface18485488">
<path style=" stroke:none;fill-rule:nonzero;fill:rgb(100%,100%,100%);fill-opacity:1;" d="M 12 24 C 5.371094 24 0 18.628906 0 12 C 0 5.371094 5.371094 0 12 0 C 18.628906 0 24 5.371094 24 12 C 24 18.628906 18.628906 24 12 24 Z M 12 24 "/>
<path style=" stroke:none;fill-rule:nonzero;fill:rgb(0%,0%,0%);fill-opacity:1;" d="M 21.046875 6.132812 C 20.367188 6.433594 19.6875 6.660156 18.933594 6.738281 C 19.6875 6.285156 20.292969 5.53125 20.59375 4.699219 C 19.839844 5.152344 19.085938 5.453125 18.257812 5.605469 C 17.503906 4.851562 16.523438 4.398438 15.46875 4.398438 C 13.429688 4.398438 11.773438 6.058594 11.773438 8.09375 C 11.773438 8.394531 11.773438 8.695312 11.851562 8.921875 C 8.757812 8.773438 6.046875 7.339844 4.234375 5.078125 C 3.859375 5.605469 3.707031 6.285156 3.707031 6.960938 C 3.707031 8.246094 4.386719 9.375 5.367188 10.054688 C 4.761719 9.976562 4.160156 9.828125 3.707031 9.601562 C 3.707031 9.601562 3.707031 9.601562 3.707031 9.675781 C 3.707031 11.484375 4.988281 12.992188 6.648438 13.296875 C 6.347656 13.371094 6.046875 13.445312 5.667969 13.445312 C 5.441406 13.445312 5.214844 13.445312 4.988281 13.371094 C 5.441406 14.878906 6.800781 15.933594 8.457031 15.933594 C 7.175781 16.914062 5.59375 17.515625 3.859375 17.515625 C 3.558594 17.515625 3.253906 17.515625 2.953125 17.441406 C 4.613281 18.496094 6.574219 19.101562 8.609375 19.101562 C 15.46875 19.101562 19.160156 13.445312 19.160156 8.546875 C 19.160156 8.394531 19.160156 8.246094 19.160156 8.09375 C 19.914062 7.566406 20.519531 6.886719 21.046875 6.132812 "/>
</g>
</svg>
