<?xml version="1.0" encoding="UTF-8"?>
<svg xmlns="http://www.w3.org/2000/svg" xmlns:xlink="http://www.w3.org/1999/xlink" width="24pt" height="24pt" viewBox="0 0 24 24" version="1.1">
<g id="surface19051256">
<path style=" stroke:none;fill-rule:nonzero;fill:rgb(100%,100%,100%);fill-opacity:1;" d="M 12 24 C 5.371094 24 0 18.628906 0 12 C 0 5.371094 5.371094 0 12 0 C 18.628906 0 24 5.371094 24 12 C 24 18.628906 18.628906 24 12 24 Z M 12 24 "/>
<path style=" stroke:none;fill-rule:nonzero;fill:rgb(0%,0%,0%);fill-opacity:1;" d="M 19.1875 7.640625 C 19.015625 6.996094 18.503906 6.484375 17.859375 6.3125 C 16.691406 6 12 6 12 6 C 12 6 7.308594 6 6.140625 6.3125 C 5.496094 6.484375 4.984375 6.996094 4.8125 7.640625 C 4.5 8.808594 4.5 12 4.5 12 C 4.5 12 4.5 15.191406 4.8125 16.359375 C 4.984375 17.003906 5.496094 17.515625 6.140625 17.6875 C 7.308594 18 12 18 12 18 C 12 18 16.691406 18 17.859375 17.6875 C 18.507812 17.515625 19.015625 17.003906 19.1875 16.359375 C 19.5 15.191406 19.5 12 19.5 12 C 19.5 12 19.5 8.808594 19.1875 7.640625 Z M 10.5 13.949219 L 10.5 10.050781 C 10.5 9.761719 10.8125 9.582031 11.0625 9.726562 L 14.4375 11.675781 C 14.6875 11.820312 14.6875 12.179688 14.4375 12.324219 L 11.0625 14.273438 C 10.8125 14.417969 10.5 14.238281 10.5 13.949219 Z M 10.5 13.949219 "/>
</g>
</svg>
